<?xml version="1.0" encoding="iso-8859-1"?>
<!-- Generator: Adobe Illustrator 21.1.0, SVG Export Plug-In . SVG Version: 6.00 Build 0)  -->
<svg version="1.1" id="Layer_1" xmlns="http://www.w3.org/2000/svg" xmlns:xlink="http://www.w3.org/1999/xlink" x="0px" y="0px"
	 viewBox="0 0 12.009 20.843" style="enable-background:new 0 0 12.009 20.843;" xml:space="preserve">
<g>
	<path style="fill:#3DACC4;" d="M11.57,11.393L11.57,11.393c-0.585,0.585-1.535,0.585-2.12,0L0.616,2.559
		c-0.585-0.585-0.585-1.535,0-2.12l0,0c0.585-0.585,1.535-0.585,2.12,0l8.834,8.834C12.156,9.859,12.156,10.808,11.57,11.393z"/>
	<path style="fill:#3DACC4;" d="M0.439,20.404L0.439,20.404c-0.585-0.585-0.585-1.535,0-2.12L9.273,9.45
		c0.585-0.585,1.535-0.585,2.12,0l0,0c0.585,0.585,0.585,1.535,0,2.12l-8.834,8.834C1.974,20.99,1.025,20.99,0.439,20.404z"/>
</g>
</svg>
