<?xml version="1.0" encoding="iso-8859-1"?>
<!-- Generator: Adobe Illustrator 21.1.0, SVG Export Plug-In . SVG Version: 6.00 Build 0)  -->
<svg version="1.1" id="Layer_1" xmlns="http://www.w3.org/2000/svg" xmlns:xlink="http://www.w3.org/1999/xlink" x="0px" y="0px"
	 viewBox="0 0 46.744 43.087" style="enable-background:new 0 0 46.744 43.087;" xml:space="preserve">
<path style="fill:none;stroke:#3DACC4;stroke-width:2;stroke-linecap:round;stroke-miterlimit:10;" d="M20.538,42.087
	c5.407-5.577,10.847-11.154,16.296-16.704c2.382-2.426,4.781-4.873,6.722-7.678c0.873-1.261,1.831-2.586,2.028-4.109
	c0.243-1.877,0.262-3.682-0.319-5.508c-1.303-4.097-4.95-6.898-9.259-7.081c-3.881-0.164-7.254,2.075-10.019,4.581
	c-3.019,2.736-5.824,5.775-8.715,8.663c-2.784,2.781-5.567,5.561-8.351,8.342c-2.462,2.459-5.707,4.92-7.171,8.159
	c-1.262,2.792-0.979,6.301,1.211,8.557c1.885,1.942,4.85,2.75,7.468,2.061c2.697-0.71,4.788-2.783,6.741-4.775
	c3.589-3.66,7.264-7.235,10.875-10.874c1.828-1.842,3.64-3.701,5.415-5.594c1.583-1.689,3.523-3.44,4.399-5.631
	c0.909-2.275,0.062-5.131-2.401-5.931c-2.025-0.658-4.443,0.18-5.907,1.649c-6.414,6.436-12.837,12.863-19.262,19.288"/>
</svg>
